<?xml version="1.0" encoding="utf-8"?>
<!-- Generator: Adobe Illustrator 16.0.0, SVG Export Plug-In . SVG Version: 6.00 Build 0)  -->
<!DOCTYPE svg PUBLIC "-//W3C//DTD SVG 1.1//EN" "http://www.w3.org/Graphics/SVG/1.1/DTD/svg11.dtd">
<svg version="1.1" id="Layer_1" xmlns="http://www.w3.org/2000/svg" xmlns:xlink="http://www.w3.org/1999/xlink" x="0px" y="0px"
	 width="31px" height="41px" viewBox="0 0 31 41" enable-background="new 0 0 31 41" xml:space="preserve">
<title>Happy-Mizy</title>
<desc>Created with Sketch.</desc>
<g id="Page-1">
	<g id="Mizy-in-cirlce" transform="translate(-13.000000, -6.000000)">
		<g id="Happy-Mizy" transform="translate(13.000000, 6.000000)">
			<path id="Fill-1" fill="#E5782B" d="M28.13,17.518c-1.126,0-3.026,0-5.315,0c-0.296-0.411-0.834-0.785-1.549-1.103l3.689-6.118
				c1.158-0.136,2.059-1.137,2.059-2.352c0-1.308-1.042-2.367-2.328-2.367c-1.285,0-2.328,1.06-2.328,2.367
				c0,0.458,0.129,0.884,0.352,1.246l-3.779,6.267c-0.045,0.075-0.082,0.153-0.109,0.233c-0.527-0.1-1.087-0.18-1.676-0.233
				c0,0-1.653-0.084-1.719-0.086v0.007c-0.061,0.002-1.709,0.086-1.709,0.086c-0.408,0.038-0.801,0.088-1.182,0.147
				c-0.021-0.052-0.043-0.104-0.072-0.154L8.563,8.991c0.153-0.316,0.241-0.67,0.241-1.046c0-1.308-1.043-2.367-2.328-2.367
				c-1.286,0-2.328,1.06-2.328,2.367c0,1.298,1.027,2.351,2.299,2.367l3.577,5.934c-0.932,0.351-1.626,0.788-1.979,1.278
				c-2.288,0-4.188,0-5.313,0c-5.234,0,0,22.881,0,22.881h12.703v-0.006H28.13C28.13,40.399,33.363,17.518,28.13,17.518"/>
			<path id="Fill-4" fill="#FFFFFE" d="M12.926,26.083c0,2.234-1.783,4.047-3.979,4.047c-2.199,0-3.979-1.813-3.979-4.047
				s1.78-4.047,3.979-4.047C11.143,22.036,12.926,23.849,12.926,26.083"/>
			<path id="Fill-5" fill="#E5782B" d="M10.747,26.083c0,1.012-0.806,1.833-1.801,1.833s-1.801-0.821-1.801-1.833
				s0.806-1.832,1.801-1.832S10.747,25.071,10.747,26.083"/>
			<path id="Fill-6" fill="#FFFFFE" d="M17.937,26.077c0,2.235,1.782,4.047,3.98,4.047s3.979-1.812,3.979-4.047
				c0-2.234-1.781-4.047-3.979-4.047S17.937,23.843,17.937,26.077"/>
			<path id="Fill-7" fill="#E5782B" d="M20.115,26.077c0,1.012,0.807,1.834,1.802,1.834s1.801-0.822,1.801-1.834
				c0-1.01-0.806-1.832-1.801-1.832S20.115,25.067,20.115,26.077"/>
			<path id="Fill-8" fill="#FFFFFE" d="M10.605,33.603v0.125h-0.014l0.014,0.006v0.001h0.003l0.004,0.002
				c0.078,1.905,2.203,3.433,4.819,3.433c2.619,0,4.746-1.531,4.82-3.441h0.006v-0.125H10.605"/>
			<path id="Fill-9" fill="#E5782B" d="M15.518,12.086L13.96,4.72l-0.817,2.862l-2.654-0.006c-0.274-0.001-0.497-0.228-0.496-0.508
				c0.001-0.276,0.223-0.503,0.497-0.503h0.001l1.907,0.004l1.707-5.975l1.671,7.902l1.629-4.438l1.055,3.124l0.326-0.617h1.755
				c0.274,0,0.497,0.227,0.497,0.505s-0.223,0.506-0.497,0.506h-1.161l-1.123,2.119l-0.892-2.642L15.518,12.086"/>
			<g id="Group-14" transform="translate(14.933333, 4.881356)">
				<polyline id="Fill-10" fill="#E5782B" points="5.369,0.564 6.379,2.189 5.369,3.815 5.361,3.815 5.361,0.564 5.369,0.564 				
					"/>
				<path id="Fill-12" fill="#E4E4DF" d="M0.64,35.524H0.631v-0.006h12.565c0,0,5.233-22.882,0-22.882c0.048,0,0.094,0,0.139,0
					c5.233,0,0,22.882,0,22.882H0.64V35.524"/>
				<path id="Fill-13" fill="#CC6E2D" d="M13.197,35.518H0.631v-3.23c2.559-0.051,4.614-1.564,4.688-3.441h0.006v-0.125H0.631
					V12.636c0.009,0,0.019,0,0.027,0h7.248c2.248,0,4.131,0,5.29,0C18.43,12.636,13.197,35.518,13.197,35.518 M6.984,17.149
					c-2.198,0-3.98,1.813-3.98,4.047c0,2.235,1.782,4.047,3.98,4.047s3.979-1.812,3.979-4.047
					C10.963,18.961,9.182,17.149,6.984,17.149"/>
			</g>
			<path id="Fill-15" fill="#E4E4DF" d="M21.917,30.124c-2.198,0-3.98-1.812-3.98-4.047c0-2.234,1.782-4.047,3.98-4.047
				s3.979,1.813,3.979,4.047C25.896,28.313,24.115,30.124,21.917,30.124 M21.917,27.911L21.917,27.911
				c0.995,0,1.801-0.822,1.801-1.834c0-1.01-0.806-1.832-1.801-1.832l0,0c-0.995,0-1.802,0.822-1.802,1.832
				C20.115,27.089,20.922,27.911,21.917,27.911"/>
			<path id="Fill-16" fill="#CC6E2D" d="M21.917,27.911c-0.995,0-1.802-0.822-1.802-1.834c0-1.01,0.807-1.832,1.802-1.832
				c-0.995,0-1.802,0.822-1.802,1.832C20.115,27.089,20.922,27.911,21.917,27.911"/>
			<path id="Fill-17" fill="#E4E4DF" d="M15.564,37.169v-3.566h4.693v0.125h-0.006C20.179,35.604,18.123,37.118,15.564,37.169"/>
			<path id="Fill-18" fill="#CAC9C4" d="M21.917,27.911L21.917,27.911c0.995,0,1.801-0.822,1.801-1.834
				c0-1.01-0.806-1.832-1.801-1.832l0,0c0.995,0,1.801,0.822,1.801,1.832C23.718,27.089,22.912,27.911,21.917,27.911"/>
			<path id="Fill-19" fill="#B6642F" d="M21.917,27.911c-0.995,0-1.802-0.822-1.802-1.834c0-1.01,0.807-1.832,1.802-1.832
				s1.801,0.822,1.801,1.832C23.718,27.089,22.912,27.911,21.917,27.911"/>
			<path id="Fill-20" fill="#E4E4DF" d="M22.84,17.518c-0.008,0-0.017,0-0.025,0c-0.296-0.411-0.834-0.785-1.549-1.103l3.689-6.118
				c1.158-0.136,2.059-1.137,2.059-2.352c0-1.304-1.035-2.36-2.314-2.367c0.004,0,0.008,0,0.013,0c1.286,0,2.328,1.06,2.328,2.367
				c0,1.215-0.9,2.216-2.06,2.352l-3.688,6.118C22.007,16.732,22.543,17.106,22.84,17.518 M18.82,15.691
				c-0.527-0.1-1.087-0.18-1.676-0.233c0,0-1.121-0.057-1.553-0.078v-0.001c0.406,0.02,1.58,0.079,1.58,0.079
				c0.579,0.054,1.13,0.132,1.65,0.229C18.821,15.688,18.82,15.69,18.82,15.691"/>
			<path id="Fill-21" fill="#CC6E2D" d="M22.84,17.518c-2.182,0-4.707,0-7.248,0V15.38c0.432,0.021,1.553,0.078,1.553,0.078
				c0.589,0.054,1.148,0.134,1.676,0.233c0-0.001,0.001-0.003,0.002-0.004c0.008,0.001,0.016,0.003,0.023,0.004
				c0.029-0.079,0.064-0.158,0.11-0.233l3.778-6.267c-0.221-0.362-0.352-0.788-0.352-1.246c0-1.304,1.037-2.36,2.316-2.367
				c1.279,0.007,2.314,1.063,2.314,2.367c0,1.215-0.9,2.216-2.059,2.352l-3.689,6.118c0.715,0.317,1.253,0.691,1.549,1.103
				C22.823,17.518,22.832,17.518,22.84,17.518"/>
			<path id="Fill-22" fill="#B6642F" d="M22.84,17.518h-7.248C18.133,17.518,20.658,17.518,22.84,17.518"/>
		</g>
	</g>
</g>
</svg>
