<?xml version="1.0" encoding="UTF-8"?>
<svg width="56px" height="56px" viewBox="0 0 56 56" version="1.1" xmlns="http://www.w3.org/2000/svg" xmlns:xlink="http://www.w3.org/1999/xlink">
    <!-- Generator: Sketch 53.1 (72631) - https://sketchapp.com -->
    <title>Mizy-in-cirlce</title>
    <desc>Created with Sketch.</desc>
    <defs>
        <linearGradient x1="50%" y1="2.87436777%" x2="50%" y2="100%" id="linearGradient-1">
            <stop stop-color="#FFFFFF" offset="0%"></stop>
            <stop stop-color="#E8E8E8" offset="100%"></stop>
        </linearGradient>
    </defs>
    <g id="Page-1" stroke="none" stroke-width="1" fill="none" fill-rule="evenodd">
        <g id="Mizy-in-cirlce" fill-rule="nonzero">
            <circle id="Oval" fill="url(#linearGradient-1)" cx="28" cy="28" r="28"></circle>
            <g id="Happy-Mizy" transform="translate(13.000000, 6.000000)">
                <path d="M27.7237333,17.1937627 C26.5978667,17.1937627 24.6970667,17.1937627 22.4088,17.1937627 C22.1125333,16.7826441 21.5746667,16.4089492 20.8597333,16.091661 L24.5482667,9.97315254 C25.7072,9.83755932 26.6077333,8.83688136 26.6077333,7.62169492 C26.6077333,6.3140339 25.5653333,5.25450847 24.2794667,5.25450847 C22.9941333,5.25450847 21.9509333,6.3140339 21.9509333,7.62169492 C21.9509333,8.07972881 22.0808,8.50576271 22.3024,8.8680678 L18.5237333,15.1349153 C18.4784,15.2100339 18.4421333,15.2881356 18.4138667,15.3678644 C17.8866667,15.2680678 17.3269333,15.1886102 16.7386667,15.1349153 C16.7386667,15.1349153 15.0848,15.0503051 15.02,15.0489492 L15.02,15.0557288 C14.9592,15.0573559 13.3106667,15.1416949 13.3106667,15.1416949 C12.9029333,15.1791186 12.5096,15.2292881 12.1296,15.2892203 C12.1072,15.2371525 12.0866667,15.1848136 12.0568,15.1349153 L8.15706667,8.66738983 C8.3104,8.35172881 8.39893333,7.99755932 8.39893333,7.62169492 C8.39893333,6.3140339 7.35573333,5.25450847 6.07013333,5.25450847 C4.7848,5.25450847 3.7424,6.3140339 3.7424,7.62169492 C3.7424,8.91959322 4.76933333,9.97288136 6.04106667,9.98888136 L9.61866667,15.9224407 C8.68666667,16.2730847 7.99253333,16.7105085 7.63973333,17.2008136 C5.35226667,17.2008136 3.45226667,17.2008136 2.3264,17.2008136 C-2.908,17.2008136 2.3264,40.0816271 2.3264,40.0816271 L15.0293333,40.0816271 L15.0293333,40.075661 L27.7237333,40.075661 C27.7237333,40.075661 32.9573333,17.1937627 27.7237333,17.1937627" id="Fill-1" fill="#E5782B"></path>
                <path d="M12.5197333,25.7594576 C12.5197333,27.9948475 10.7368,29.8071864 8.54026667,29.8071864 C6.34106667,29.8071864 4.56053333,27.9948475 4.56053333,25.7594576 C4.56053333,23.5254237 6.34106667,21.7130847 8.54026667,21.7130847 C10.7368,21.7130847 12.5197333,23.5254237 12.5197333,25.7594576" id="Fill-4" fill="#FFFFFE"></path>
                <path d="M10.3413333,25.7594576 C10.3413333,26.7717966 9.53493333,27.5929492 8.54026667,27.5929492 C7.5448,27.5929492 6.73973333,26.7717966 6.73973333,25.7594576 C6.73973333,24.7487458 7.5448,23.9278644 8.54026667,23.9278644 C9.53493333,23.9278644 10.3413333,24.7487458 10.3413333,25.7594576" id="Fill-5" fill="#E5782B"></path>
                <path d="M17.5304,25.7540339 C17.5304,27.9894237 19.3130667,29.8014915 21.5106667,29.8014915 C23.7088,29.8014915 25.4901333,27.9894237 25.4901333,25.7540339 C25.4901333,23.5189153 23.7088,21.7063051 21.5106667,21.7063051 C19.3130667,21.7063051 17.5304,23.5189153 17.5304,25.7540339" id="Fill-6" fill="#FFFFFE"></path>
                <path d="M19.7088,25.7540339 C19.7088,26.7661017 20.5149333,27.5872542 21.5106667,27.5872542 C22.5053333,27.5872542 23.3114667,26.7661017 23.3114667,25.7540339 C23.3114667,24.7435932 22.5053333,23.9224407 21.5106667,23.9224407 C20.5149333,23.9224407 19.7088,24.7435932 19.7088,25.7540339" id="Fill-7" fill="#E5782B"></path>
                <path d="M10.1992,33.2786441 L10.1992,33.4044746 L10.1853333,33.4044746 L10.1992,33.4098983 L10.1992,33.4112542 L10.2024,33.4112542 L10.2058667,33.4131525 C10.2848,35.3185085 12.4093333,36.8463729 15.0253333,36.8463729 C17.6450667,36.8463729 19.7712,35.3141695 19.8453333,33.4044746 L19.852,33.4044746 L19.852,33.2786441 L10.1992,33.2786441" id="Fill-8" fill="#FFFFFE"></path>
                <path d="M15.112,11.7624407 L13.5541333,4.39620339 L12.7365333,7.25830508 L10.0818667,7.25288136 C9.80746667,7.25152542 9.58533333,7.02535593 9.58666667,6.74522034 C9.58746667,6.4680678 9.8088,6.24189831 10.0832,6.24189831 L10.0845333,6.24189831 L11.9914667,6.24623729 L13.6986667,0.270915254 L15.3690667,8.17383051 L16.9986667,3.73477966 L18.0525333,6.85911864 L18.3784,6.24189831 L20.1336,6.24189831 C20.4082667,6.24189831 20.6304,6.4680678 20.6304,6.74684746 C20.6304,7.02535593 20.4082667,7.25288136 20.1336,7.25288136 L18.9722667,7.25288136 L17.8493333,9.37166102 L16.9581333,6.73030508 L15.112,11.7624407" id="Fill-9" fill="#E5782B"></path>
                <g id="Group-14" transform="translate(14.933333, 4.881356)">
                    <polyline id="Fill-10" fill="#E5782B" points="4.96346667 0.240271186 5.97333333 1.86549153 4.96346667 3.49179661 4.95413333 3.49179661 4.95413333 0.240271186 4.96346667 0.240271186"></polyline>
                    <path d="M0.234133333,35.2002712 L0.2248,35.2002712 L0.2248,35.1943051 L12.7904,35.1943051 C12.7904,35.1943051 18.024,12.3124068 12.7904,12.3124068 C12.8378667,12.3124068 12.884,12.3124068 12.9288,12.3124068 C18.1624,12.3124068 12.9288,35.1943051 12.9288,35.1943051 L0.234133333,35.1943051 L0.234133333,35.2002712" id="Fill-12" fill="#E4E4DF"></path>
                    <path d="M12.7904,35.1943051 L0.2248,35.1943051 L0.2248,31.963661 C2.7832,31.9129492 4.8392,30.4002712 4.912,28.5231186 L4.91866667,28.5231186 L4.91866667,28.3972881 L0.2248,28.3972881 L0.2248,12.3124068 C0.233866667,12.3124068 0.2432,12.3124068 0.252,12.3124068 L7.50053333,12.3124068 C9.748,12.3124068 11.6309333,12.3124068 12.7904,12.3124068 C18.024,12.3124068 12.7904,35.1943051 12.7904,35.1943051 M6.57733333,16.8249492 C4.37973333,16.8249492 2.59706667,18.6375593 2.59706667,20.872678 C2.59706667,23.1080678 4.37973333,24.9201356 6.57733333,24.9201356 C8.77546667,24.9201356 10.5568,23.1080678 10.5568,20.872678 C10.5568,18.6375593 8.77546667,16.8249492 6.57733333,16.8249492" id="Fill-13" fill="#CC6E2D"></path>
                </g>
                <path d="M21.5106667,29.8014915 C19.3130667,29.8014915 17.5304,27.9894237 17.5304,25.7540339 C17.5304,23.5189153 19.3130667,21.7063051 21.5106667,21.7063051 C23.7088,21.7063051 25.4901333,23.5189153 25.4901333,25.7540339 C25.4901333,27.9894237 23.7088,29.8014915 21.5106667,29.8014915 M21.5106667,27.5872542 C21.5106667,27.5872542 21.5106667,27.5872542 21.5109333,27.5872542 C22.5056,27.5872542 23.3117333,26.7661017 23.3117333,25.7540339 C23.3117333,24.7435932 22.5056,23.9224407 21.5109333,23.9224407 C21.5106667,23.9224407 21.5106667,23.9224407 21.5106667,23.9224407 C20.5149333,23.9224407 19.7088,24.7435932 19.7088,25.7540339 C19.7088,26.7661017 20.5149333,27.5872542 21.5106667,27.5872542" id="Fill-15" fill="#E4E4DF"></path>
                <path d="M21.5106667,27.5872542 C20.5149333,27.5872542 19.7088,26.7661017 19.7088,25.7540339 C19.7088,24.7435932 20.5149333,23.9224407 21.5106667,23.9224407 C20.5152,23.9224407 19.7090667,24.7435932 19.7090667,25.7540339 C19.7090667,26.7661017 20.5152,27.5872542 21.5106667,27.5872542" id="Fill-16" fill="#CC6E2D"></path>
                <path d="M15.1581333,36.8450169 L15.1581333,33.2786441 L19.852,33.2786441 L19.852,33.4044746 L19.8453333,33.4044746 C19.7725333,35.2816271 17.7165333,36.7943051 15.1581333,36.8450169" id="Fill-17" fill="#E4E4DF"></path>
                <path d="M21.5109333,27.5872542 C21.5106667,27.5872542 21.5106667,27.5872542 21.5106667,27.5872542 C22.5053333,27.5872542 23.3114667,26.7661017 23.3114667,25.7540339 C23.3114667,24.7435932 22.5053333,23.9224407 21.5106667,23.9224407 C21.5106667,23.9224407 21.5106667,23.9224407 21.5109333,23.9224407 C22.5056,23.9224407 23.3117333,24.7435932 23.3117333,25.7540339 C23.3117333,26.7661017 22.5056,27.5872542 21.5109333,27.5872542" id="Fill-18" fill="#CAC9C4"></path>
                <path d="M21.5106667,27.5872542 C20.5152,27.5872542 19.7090667,26.7661017 19.7090667,25.7540339 C19.7090667,24.7435932 20.5152,23.9224407 21.5106667,23.9224407 C22.5053333,23.9224407 23.3114667,24.7435932 23.3114667,25.7540339 C23.3114667,26.7661017 22.5053333,27.5872542 21.5106667,27.5872542" id="Fill-19" fill="#B6642F"></path>
                <path d="M22.4338667,17.1937627 C22.4253333,17.1937627 22.4170667,17.1937627 22.4088,17.1937627 C22.1125333,16.7826441 21.5746667,16.4089492 20.8597333,16.091661 L24.5482667,9.97315254 C25.7072,9.83755932 26.6077333,8.83688136 26.6077333,7.62169492 C26.6077333,6.31837288 25.5722667,5.26183051 24.2925333,5.25450847 C24.2968,5.25450847 24.3013333,5.25450847 24.3056,5.25450847 C25.5912,5.25450847 26.6338667,6.3140339 26.6338667,7.62169492 C26.6338667,8.83688136 25.7333333,9.83755932 24.5744,9.97315254 L20.8856,16.0919322 C21.6008,16.4089492 22.1362667,16.7831864 22.4338667,17.1937627 M18.4138667,15.3678644 C17.8866667,15.2680678 17.3269333,15.1886102 16.7386667,15.1349153 C16.7386667,15.1349153 15.6178667,15.0776949 15.1853333,15.0565424 L15.1853333,15.0551864 C15.5925333,15.0749831 16.7661333,15.1349153 16.7661333,15.1349153 C17.3448,15.1877966 17.8957333,15.2658983 18.4154667,15.3635254 C18.4149333,15.3648814 18.4144,15.3665085 18.4138667,15.3678644" id="Fill-20" fill="#E4E4DF"></path>
                <path d="M22.4338667,17.1937627 C20.252,17.1937627 17.7264,17.1937627 15.1853333,17.1937627 L15.1853333,15.0565424 C15.6178667,15.0776949 16.7386667,15.1349153 16.7386667,15.1349153 C17.3269333,15.1886102 17.8866667,15.2680678 18.4138667,15.3678644 C18.4144,15.3665085 18.4149333,15.3648814 18.4154667,15.3635254 C18.4234667,15.3648814 18.4317333,15.3665085 18.4397333,15.3681356 C18.4682667,15.2884068 18.5042667,15.2100339 18.5496,15.1349153 L22.3285333,8.8680678 C22.1069333,8.50576271 21.9770667,8.07972881 21.9770667,7.62169492 C21.9770667,6.31837288 23.0130667,5.26183051 24.2925333,5.25450847 C25.5722667,5.26183051 26.6077333,6.31837288 26.6077333,7.62169492 C26.6077333,8.83688136 25.7072,9.83755932 24.5482667,9.97315254 L20.8597333,16.091661 C21.5746667,16.4089492 22.1125333,16.7826441 22.4088,17.1937627 C22.4170667,17.1937627 22.4253333,17.1937627 22.4338667,17.1937627" id="Fill-21" fill="#CC6E2D"></path>
                <path d="M22.4338667,17.1937627 L15.1853333,17.1937627 C17.7264,17.1937627 20.252,17.1937627 22.4338667,17.1937627" id="Fill-22" fill="#B6642F"></path>
            </g>
        </g>
    </g>
</svg>