<?xml version="1.0" encoding="UTF-8"?>
<svg width="46px" height="60px" viewBox="0 0 46 60" version="1.1" xmlns="http://www.w3.org/2000/svg" xmlns:xlink="http://www.w3.org/1999/xlink">
    <!-- Generator: Sketch 53.1 (72631) - https://sketchapp.com -->
    <title>Robot head ok</title>
    <desc>Created with Sketch.</desc>
    <g id="Symbols" stroke="none" stroke-width="1" fill="none" fill-rule="evenodd">
        <g id="UI-kit-/-Layouts-/-Automation-/-Tutorial-/-Robot-/-Sad-NEW">
            <g id="Robot-head-ok">
                <path d="M41.5856,25.3608 C39.8968,25.3608 37.0456,25.3608 33.6132,25.3608 C33.1688,24.7544 32.362,24.2032 31.2896,23.7352 L36.8224,14.7104 C38.5608,14.5104 39.9116,13.0344 39.9116,11.242 C39.9116,9.3132 38.348,7.7504 36.4192,7.7504 C34.4912,7.7504 32.9264,9.3132 32.9264,11.242 C32.9264,11.9176 33.1212,12.546 33.4536,13.0804 L27.7856,22.324 C27.7176,22.4348 27.6632,22.55 27.6208,22.6676 C26.83,22.5204 25.9904,22.4032 25.108,22.324 C25.108,22.324 22.6272,22.1992 22.53,22.1972 L22.53,22.2072 C22.4388,22.2096 19.966,22.334 19.966,22.334 C19.3544,22.3892 18.7644,22.4632 18.1944,22.5516 C18.1608,22.4748 18.13,22.3976 18.0852,22.324 L12.2356,12.7844 C12.4656,12.3188 12.5984,11.7964 12.5984,11.242 C12.5984,9.3132 11.0336,7.7504 9.1052,7.7504 C7.1772,7.7504 5.6136,9.3132 5.6136,11.242 C5.6136,13.1564 7.154,14.71 9.0616,14.7336 L14.428,23.4856 C13.03,24.0028 11.9888,24.648 11.4596,25.3712 C8.0284,25.3712 5.1784,25.3712 3.4896,25.3712 C-4.362,25.3712 3.4896,59.1204 3.4896,59.1204 L22.544,59.1204 L22.544,59.1116 L41.5856,59.1116 C41.5856,59.1116 49.436,25.3608 41.5856,25.3608" id="Fill-1" fill="#E5782B"></path>
                <path d="M18.7796,37.9952 C18.7796,41.2924 16.1052,43.9656 12.8104,43.9656 C9.5116,43.9656 6.8408,41.2924 6.8408,37.9952 C6.8408,34.7 9.5116,32.0268 12.8104,32.0268 C16.1052,32.0268 18.7796,34.7 18.7796,37.9952" id="Fill-4" fill="#FFFFFE"></path>
                <path d="M15.512,37.9952 C15.512,39.4884 14.3024,40.6996 12.8104,40.6996 C11.3172,40.6996 10.1096,39.4884 10.1096,37.9952 C10.1096,36.5044 11.3172,35.2936 12.8104,35.2936 C14.3024,35.2936 15.512,36.5044 15.512,37.9952" id="Fill-5" fill="#E5782B"></path>
                <path d="M26.2956,37.9872 C26.2956,41.2844 28.9696,43.9572 32.266,43.9572 C35.5632,43.9572 38.2352,41.2844 38.2352,37.9872 C38.2352,34.6904 35.5632,32.0168 32.266,32.0168 C28.9696,32.0168 26.2956,34.6904 26.2956,37.9872" id="Fill-6" fill="#FFFFFE"></path>
                <path d="M29.5632,37.9872 C29.5632,39.48 30.7724,40.6912 32.266,40.6912 C33.758,40.6912 34.9672,39.48 34.9672,37.9872 C34.9672,36.4968 33.758,35.2856 32.266,35.2856 C30.7724,35.2856 29.5632,36.4968 29.5632,37.9872" id="Fill-7" fill="#E5782B"></path>
                <path d="M15.2988,49.086 L15.2988,49.2716 L15.278,49.2716 L15.2988,49.2796 L15.2988,49.2816 L15.3036,49.2816 L15.3088,49.2844 C15.4272,52.0948 18.614,54.3484 22.538,54.3484 C26.4676,54.3484 29.6568,52.0884 29.768,49.2716 L29.778,49.2716 L29.778,49.086 L15.2988,49.086" id="Fill-8" fill="#FFFFFE" transform="translate(22.528000, 51.717200) scale(1, -1) translate(-22.528000, -51.717200) "></path>
                <path d="M22.668,17.3496 L20.3312,6.4844 L19.1048,10.706 L15.1228,10.698 C14.7112,10.696 14.378,10.3624 14.38,9.9492 C14.3812,9.5404 14.7132,9.2068 15.1248,9.2068 L15.1268,9.2068 L17.9872,9.2132 L20.548,0.3996 L23.0536,12.0564 L25.498,5.5088 L27.0788,10.1172 L27.5676,9.2068 L30.2004,9.2068 C30.6124,9.2068 30.9456,9.5404 30.9456,9.9516 C30.9456,10.3624 30.6124,10.698 30.2004,10.698 L28.4584,10.698 L26.774,13.8232 L25.4372,9.9272 L22.668,17.3496" id="Fill-9" fill="#E5782B"></path>
                <g id="Group-14" transform="translate(22.400000, 7.200000)">
                    <polyline id="Fill-10" fill="#E5782B" points="7.4452 0.3544 8.96 2.7516 7.4452 5.1504 7.4312 5.1504 7.4312 0.3544 7.4452 0.3544"></polyline>
                    <path d="M0.3512,51.9204 L0.3372,51.9204 L0.3372,51.9116 L19.1856,51.9116 C19.1856,51.9116 27.036,18.1608 19.1856,18.1608 C19.2568,18.1608 19.326,18.1608 19.3932,18.1608 C27.2436,18.1608 19.3932,51.9116 19.3932,51.9116 L0.3512,51.9116 L0.3512,51.9204" id="Fill-12" fill="#E4E4DF"></path>
                    <path d="M0.3372,51.9116 L0.3372,47.1464 L0.3372,41.886 L0.3372,18.1608 C0.3508,18.1608 0.3648,18.1608 0.378,18.1608 L11.2508,18.1608 C14.622,18.1608 17.4464,18.1608 19.1856,18.1608 C27.036,18.1608 19.1856,51.9116 19.1856,51.9116 L0.3372,51.9116 Z M9.866,24.8168 C6.5696,24.8168 3.8956,27.4904 3.8956,30.7872 C3.8956,34.0844 6.5696,36.7572 9.866,36.7572 C13.1632,36.7572 15.8352,34.0844 15.8352,30.7872 C15.8352,27.4904 13.1632,24.8168 9.866,24.8168" id="Fill-13" fill="#CC6E2D"></path>
                </g>
                <path d="M32.266,43.9572 C28.9696,43.9572 26.2956,41.2844 26.2956,37.9872 C26.2956,34.6904 28.9696,32.0168 32.266,32.0168 C35.5632,32.0168 38.2352,34.6904 38.2352,37.9872 C38.2352,41.2844 35.5632,43.9572 32.266,43.9572 M32.266,40.6912 C32.266,40.6912 32.266,40.6912 32.2664,40.6912 C33.7584,40.6912 34.9676,39.48 34.9676,37.9872 C34.9676,36.4968 33.7584,35.2856 32.2664,35.2856 C32.266,35.2856 32.266,35.2856 32.266,35.2856 C30.7724,35.2856 29.5632,36.4968 29.5632,37.9872 C29.5632,39.48 30.7724,40.6912 32.266,40.6912" id="Fill-15" fill="#E4E4DF"></path>
                <path d="M32.266,40.6912 C30.7724,40.6912 29.5632,39.48 29.5632,37.9872 C29.5632,36.4968 30.7724,35.2856 32.266,35.2856 C30.7728,35.2856 29.5636,36.4968 29.5636,37.9872 C29.5636,39.48 30.7728,40.6912 32.266,40.6912" id="Fill-16" fill="#CC6E2D"></path>
                <path d="M22.7372,54.3464 L22.7372,49.086 L29.778,49.086 L29.778,49.2716 L29.768,49.2716 C29.6588,52.0404 26.5748,54.2716 22.7372,54.3464" id="Fill-17" fill="#E4E4DF" transform="translate(26.257600, 51.716200) scale(1, -1) translate(-26.257600, -51.716200) "></path>
                <path d="M32.2664,40.6912 C32.266,40.6912 32.266,40.6912 32.266,40.6912 C33.758,40.6912 34.9672,39.48 34.9672,37.9872 C34.9672,36.4968 33.758,35.2856 32.266,35.2856 C32.266,35.2856 32.266,35.2856 32.2664,35.2856 C33.7584,35.2856 34.9676,36.4968 34.9676,37.9872 C34.9676,39.48 33.7584,40.6912 32.2664,40.6912" id="Fill-18" fill="#CAC9C4"></path>
                <path d="M32.266,40.6912 C30.7728,40.6912 29.5636,39.48 29.5636,37.9872 C29.5636,36.4968 30.7728,35.2856 32.266,35.2856 C33.758,35.2856 34.9672,36.4968 34.9672,37.9872 C34.9672,39.48 33.758,40.6912 32.266,40.6912" id="Fill-19" fill="#B6642F"></path>
                <path d="M33.6508,25.3608 C33.638,25.3608 33.6256,25.3608 33.6132,25.3608 C33.1688,24.7544 32.362,24.2032 31.2896,23.7352 L36.8224,14.7104 C38.5608,14.5104 39.9116,13.0344 39.9116,11.242 C39.9116,9.3196 38.3584,7.7612 36.4388,7.7504 C36.4452,7.7504 36.452,7.7504 36.4584,7.7504 C38.3868,7.7504 39.9508,9.3132 39.9508,11.242 C39.9508,13.0344 38.6,14.5104 36.8616,14.7104 L31.3284,23.7356 C32.4012,24.2032 33.2044,24.7552 33.6508,25.3608 M27.6208,22.6676 C26.83,22.5204 25.9904,22.4032 25.108,22.324 C25.108,22.324 23.4268,22.2396 22.778,22.2084 L22.778,22.2064 C23.3888,22.2356 25.1492,22.324 25.1492,22.324 C26.0172,22.402 26.8436,22.5172 27.6232,22.6612 C27.6224,22.6632 27.6216,22.6656 27.6208,22.6676" id="Fill-20" fill="#E4E4DF"></path>
                <path d="M33.6508,25.3608 C30.378,25.3608 26.5896,25.3608 22.778,25.3608 L22.778,22.2084 C23.4268,22.2396 25.108,22.324 25.108,22.324 C25.9904,22.4032 26.83,22.5204 27.6208,22.6676 C27.6216,22.6656 27.6224,22.6632 27.6232,22.6612 C27.6352,22.6632 27.6476,22.6656 27.6596,22.668 C27.7024,22.5504 27.7564,22.4348 27.8244,22.324 L33.4928,13.0804 C33.1604,12.546 32.9656,11.9176 32.9656,11.242 C32.9656,9.3196 34.5196,7.7612 36.4388,7.7504 C38.3584,7.7612 39.9116,9.3196 39.9116,11.242 C39.9116,13.0344 38.5608,14.5104 36.8224,14.7104 L31.2896,23.7352 C32.362,24.2032 33.1688,24.7544 33.6132,25.3608 C33.6256,25.3608 33.638,25.3608 33.6508,25.3608" id="Fill-21" fill="#CC6E2D"></path>
                <path d="M33.6508,25.3608 L22.778,25.3608 C26.5896,25.3608 30.378,25.3608 33.6508,25.3608" id="Fill-22" fill="#B6642F"></path>
            </g>
        </g>
    </g>
</svg>